<svg width="270" height="216" viewBox="0 0 270 216" fill="none" xmlns="http://www.w3.org/2000/svg">
<path fill-rule="evenodd" clip-rule="evenodd" d="M223.56 70.2C227.735 70.2 231.12 73.5847 231.12 77.76C231.12 81.9353 227.735 85.32 223.56 85.32H180.36C184.535 85.32 187.92 88.7047 187.92 92.88C187.92 97.0553 184.535 100.44 180.36 100.44H204.12C208.295 100.44 211.68 103.825 211.68 108C211.68 112.175 208.295 115.56 204.12 115.56H193.132C187.868 115.56 183.6 118.945 183.6 123.12C183.6 125.904 185.76 128.424 190.08 130.68C194.255 130.68 197.64 134.065 197.64 138.24C197.64 142.415 194.255 145.8 190.08 145.8H100.44C96.2647 145.8 92.88 142.415 92.88 138.24C92.88 134.065 96.2647 130.68 100.44 130.68H58.32C54.1447 130.68 50.76 127.295 50.76 123.12C50.76 118.945 54.1447 115.56 58.32 115.56H101.52C105.695 115.56 109.08 112.175 109.08 108C109.08 103.825 105.695 100.44 101.52 100.44H74.52C70.3447 100.44 66.96 97.0553 66.96 92.88C66.96 88.7047 70.3447 85.32 74.52 85.32H117.72C113.545 85.32 110.16 81.9353 110.16 77.76C110.16 73.5847 113.545 70.2 117.72 70.2H223.56ZM223.56 100.44C227.735 100.44 231.12 103.825 231.12 108C231.12 112.175 227.735 115.56 223.56 115.56C219.385 115.56 216 112.175 216 108C216 103.825 219.385 100.44 223.56 100.44Z" fill="#1E1E2D"/>
<path d="M130.14 143.64C150.122 143.64 166.32 127.442 166.32 107.46C166.32 87.4783 150.122 71.28 130.14 71.28C110.158 71.28 93.96 87.4783 93.96 107.46C93.96 127.442 110.158 143.64 130.14 143.64Z" fill="#1E1E2D" stroke="#FFA001" stroke-width="2.5"/>
<path fill-rule="evenodd" clip-rule="evenodd" d="M124.343 135.533C126.242 135.884 128.175 136.066 130.14 136.08C145.946 136.08 158.76 123.266 158.76 107.46C158.76 91.6536 145.946 78.84 130.14 78.84C126.08 78.84 122.217 79.6856 118.718 81.2102C112.637 83.8597 107.656 88.5599 104.648 94.4372C102.648 98.3437 101.52 102.77 101.52 107.46C101.52 111.715 102.449 115.754 104.114 119.383C105.304 121.975 106.868 124.358 108.739 126.463" fill="#1E1E2D"/>
<path d="M124.343 135.533C126.242 135.884 128.175 136.066 130.14 136.08C145.946 136.08 158.76 123.266 158.76 107.46C158.76 91.6536 145.946 78.84 130.14 78.84C126.08 78.84 122.217 79.6856 118.718 81.2102C112.637 83.8597 107.656 88.5599 104.648 94.4372C102.648 98.3437 101.52 102.77 101.52 107.46C101.52 111.715 102.449 115.754 104.114 119.383C105.304 121.975 106.868 124.358 108.739 126.463" stroke="#FFA001" stroke-width="2.5" stroke-linecap="round"/>
<path d="M112.101 129.681C114.421 131.566 117.042 133.096 119.881 134.186" stroke="#FFA001" stroke-width="2.5" stroke-linecap="round"/>
<path d="M159.84 136.08L166.32 142.56" stroke="#FFA001" stroke-width="2.5"/>
<path fill-rule="evenodd" clip-rule="evenodd" d="M165.273 141.513C163.229 143.557 163.229 146.871 165.273 148.915L177.245 160.887C179.289 162.931 182.603 162.931 184.647 160.887C186.691 158.843 186.691 155.529 184.647 153.485L172.675 141.513C170.631 139.469 167.317 139.469 165.273 141.513Z" fill="#38384C" stroke="#FFA001" stroke-width="2.5"/>
<path d="M170.64 143.64L182.52 155.52" stroke="#1E1E2D" stroke-width="2.5" stroke-linecap="round"/>
<path fill-rule="evenodd" clip-rule="evenodd" d="M123.12 95.04C123.12 107.566 133.274 117.72 145.8 117.72C148.261 117.72 150.63 117.328 152.848 116.603C149.227 125.59 140.424 131.934 130.14 131.934C116.624 131.934 105.667 120.976 105.667 107.46C105.667 95.2123 114.663 85.066 126.409 83.2692C124.322 86.7017 123.12 90.7305 123.12 95.04Z" fill="#38384C"/>
<path d="M130.68 87.48C129.305 87.48 127.961 87.6153 126.661 87.8733M122.736 89.0742C115.348 92.1789 110.16 99.4836 110.16 108" stroke="#FFC15A" stroke-width="2.5" stroke-linecap="round"/>
<path d="M188.11 107.76H179.28M194.94 99.36H176.39H194.94ZM202.5 99.36H200.101H202.5Z" stroke="#FFC15A" stroke-width="2.5" stroke-linecap="round" stroke-linejoin="round"/>
<path d="M90.9098 131.52H82.0799M85.8599 122.04H67.3101H85.8599ZM61.0199 122.04H56.4611H61.0199Z" stroke="#FFC15A" stroke-width="2.5" stroke-linecap="round" stroke-linejoin="round"/>
</svg>
