<svg width="12" height="13" viewBox="0 0 12 13" fill="none" xmlns="http://www.w3.org/2000/svg">
<g clip-path="url(#clip0_1_3964)">
<path d="M10.3333 2.70833C10.477 2.70833 10.6148 2.7654 10.7164 2.86698C10.8179 2.96856 10.875 3.10634 10.875 3.25C10.875 3.39366 10.8179 3.53143 10.7164 3.63301C10.6148 3.7346 10.477 3.79167 10.3333 3.79167H9.79167L9.79004 3.83012L9.28467 10.9102C9.26521 11.1836 9.14291 11.4394 8.9424 11.6261C8.74188 11.8128 8.47805 11.9167 8.20404 11.9167H3.79542C3.52141 11.9167 3.25758 11.8128 3.05706 11.6261C2.85655 11.4394 2.73425 11.1836 2.71479 10.9102L2.20942 3.83067C2.2086 3.81768 2.20823 3.80467 2.20833 3.79167H1.66667C1.52301 3.79167 1.38523 3.7346 1.28365 3.63301C1.18207 3.53143 1.125 3.39366 1.125 3.25C1.125 3.10634 1.18207 2.96856 1.28365 2.86698C1.38523 2.7654 1.52301 2.70833 1.66667 2.70833H10.3333ZM7.08333 1.08333C7.22699 1.08333 7.36477 1.1404 7.46635 1.24198C7.56793 1.34356 7.625 1.48134 7.625 1.625C7.625 1.76866 7.56793 1.90643 7.46635 2.00801C7.36477 2.1096 7.22699 2.16667 7.08333 2.16667H4.91667C4.77301 2.16667 4.63523 2.1096 4.53365 2.00801C4.43207 1.90643 4.375 1.76866 4.375 1.625C4.375 1.48134 4.43207 1.34356 4.53365 1.24198C4.63523 1.1404 4.77301 1.08333 4.91667 1.08333H7.08333Z" fill="#CDCDE0"/>
</g>
<defs>
<clipPath id="clip0_1_3964">
<rect width="12" height="12" fill="white" transform="translate(0 0.5)"/>
</clipPath>
</defs>
</svg>
