<svg width="21" height="21" viewBox="0 0 21 21" fill="none" xmlns="http://www.w3.org/2000/svg">
<path d="M10.6737 14.6292C11.1301 14.6292 11.5679 14.8105 11.8907 15.1332C12.2134 15.456 12.3947 15.8938 12.3947 16.3502C12.3947 16.8067 12.2134 17.2444 11.8907 17.5672C11.5679 17.8899 11.1301 18.0713 10.6737 18.0713C10.2172 18.0713 9.77948 17.8899 9.45672 17.5672C9.13396 17.2444 8.95263 16.8067 8.95263 16.3502C8.95263 15.8938 9.13396 15.456 9.45672 15.1332C9.77948 14.8105 10.2172 14.6292 10.6737 14.6292ZM10.6737 8.60547C11.1301 8.60547 11.5679 8.7868 11.8907 9.10956C12.2134 9.43232 12.3947 9.87007 12.3947 10.3265C12.3947 10.783 12.2134 11.2207 11.8907 11.5435C11.5679 11.8663 11.1301 12.0476 10.6737 12.0476C10.2172 12.0476 9.77948 11.8663 9.45672 11.5435C9.13396 11.2207 8.95263 10.783 8.95263 10.3265C8.95263 9.87007 9.13396 9.43232 9.45672 9.10956C9.77948 8.7868 10.2172 8.60547 10.6737 8.60547ZM10.6737 2.58179C11.1301 2.58179 11.5679 2.76311 11.8907 3.08587C12.2134 3.40863 12.3947 3.84639 12.3947 4.30284C12.3947 4.75929 12.2134 5.19705 11.8907 5.51981C11.5679 5.84257 11.1301 6.02389 10.6737 6.02389C10.2172 6.02389 9.77948 5.84257 9.45672 5.51981C9.13396 5.19705 8.95263 4.75929 8.95263 4.30284C8.95263 3.84639 9.13396 3.40863 9.45672 3.08587C9.77948 2.76311 10.2172 2.58179 10.6737 2.58179Z" fill="currentColor"/>
</svg>
