<svg width="25" height="25" viewBox="0 0 25 25" fill="none" xmlns="http://www.w3.org/2000/svg">
<path opacity="0.5" d="M22.5 16.5V15.5C22.5 12.671 22.5 11.258 21.621 10.379C20.742 9.5 19.328 9.5 16.5 9.5H8.5C5.67 9.5 4.257 9.5 3.378 10.38C2.5 11.257 2.5 12.67 2.5 15.498V16.5C2.5 19.328 2.5 20.742 3.379 21.621C4.257 22.5 5.672 22.5 8.5 22.5H16.5C19.328 22.5 20.743 22.5 21.621 21.621C22.5 20.742 22.5 19.328 22.5 16.5Z" fill="#FFA101"/>
<path fill-rule="evenodd" clip-rule="evenodd" d="M12.5 16.25C12.6989 16.25 12.8897 16.171 13.0303 16.0303C13.171 15.8897 13.25 15.6989 13.25 15.5V4.52701L14.93 6.48801C15.0594 6.63918 15.2436 6.73275 15.442 6.74813C15.6404 6.7635 15.8368 6.69943 15.988 6.57001C16.1392 6.44058 16.2327 6.2564 16.2481 6.05799C16.2635 5.85958 16.1994 5.66318 16.07 5.51201L13.07 2.01201C12.9996 1.92967 12.9122 1.86357 12.8138 1.81825C12.7154 1.77292 12.6083 1.74945 12.5 1.74945C12.3917 1.74945 12.2846 1.77292 12.1862 1.81825C12.0878 1.86357 12.0004 1.92967 11.93 2.01201L8.93 5.51201C8.86591 5.58686 8.8172 5.6736 8.78664 5.76728C8.75607 5.86096 8.74426 5.95975 8.75188 6.05799C8.75949 6.15624 8.78638 6.25202 8.83101 6.33987C8.87565 6.42772 8.93714 6.50592 9.012 6.57001C9.08685 6.63409 9.17359 6.68281 9.26727 6.71337C9.36095 6.74393 9.45973 6.75574 9.55798 6.74813C9.65622 6.74051 9.75201 6.71362 9.83986 6.66899C9.92771 6.62436 10.0059 6.56286 10.07 6.48801L11.75 4.52801V15.5C11.75 15.914 12.086 16.25 12.5 16.25Z" fill="#FFA101"/>
</svg>

